<mxfile host="app.diagrams.net" agent="Mozilla/5.0 (Macintosh; Intel Mac OS X 10_15_7) AppleWebKit/537.36 (KHTML, like Gecko) Chrome/128.0.0.0 YaBrowser/24.10.0.0 Safari/537.36" version="24.8.6">
  <diagram id="oMlneg4mpsmTnOOR7LvY" name="Data Flow Diagram">
    <mxGraphModel dx="1468" dy="1277" grid="0" gridSize="10" guides="1" tooltips="1" connect="1" arrows="1" fold="1" page="0" pageScale="1" pageWidth="827" pageHeight="1169" math="0" shadow="0">
      <root>
        <mxCell id="0" />
        <mxCell id="1" parent="0" />
        <mxCell id="JzLwqEurtTMZZMVcW33y-14" style="edgeStyle=orthogonalEdgeStyle;rounded=1;orthogonalLoop=1;jettySize=auto;html=1;curved=0;entryX=1;entryY=0.5;entryDx=0;entryDy=0;" parent="1" source="ypkdbGbY4oHme7Ffq_ra-1" target="JzLwqEurtTMZZMVcW33y-3" edge="1">
          <mxGeometry relative="1" as="geometry">
            <Array as="points">
              <mxPoint x="619" y="-22" />
            </Array>
            <mxPoint x="481" y="-3" as="targetPoint" />
          </mxGeometry>
        </mxCell>
        <mxCell id="cnDZAFC2OdoH5LGAuBls-24" value="App info" style="edgeLabel;html=1;align=center;verticalAlign=middle;resizable=0;points=[];" parent="JzLwqEurtTMZZMVcW33y-14" vertex="1" connectable="0">
          <mxGeometry x="-0.0216" relative="1" as="geometry">
            <mxPoint x="-38" y="-2" as="offset" />
          </mxGeometry>
        </mxCell>
        <mxCell id="ypkdbGbY4oHme7Ffq_ra-1" value="&lt;span id=&quot;docs-internal-guid-28eb2121-7fff-9d14-e976-f08f9c7967d7&quot;&gt;&lt;span style=&quot;font-family: Arial, sans-serif; background-color: transparent; font-variant-numeric: normal; font-variant-east-asian: normal; font-variant-alternates: normal; font-variant-position: normal; vertical-align: baseline; white-space-collapse: preserve;&quot;&gt;&lt;font style=&quot;font-size: 13px;&quot;&gt;Add new application&lt;/font&gt;&lt;/span&gt;&lt;/span&gt;" style="html=1;whiteSpace=wrap;rounded=1;" parent="1" vertex="1">
          <mxGeometry x="568" y="75" width="110" height="50" as="geometry" />
        </mxCell>
        <mxCell id="JzLwqEurtTMZZMVcW33y-16" style="edgeStyle=orthogonalEdgeStyle;rounded=1;orthogonalLoop=1;jettySize=auto;html=1;entryX=0.013;entryY=0.304;entryDx=0;entryDy=0;curved=0;entryPerimeter=0;" parent="1" source="ypkdbGbY4oHme7Ffq_ra-2" target="JzLwqEurtTMZZMVcW33y-1" edge="1">
          <mxGeometry relative="1" as="geometry">
            <Array as="points">
              <mxPoint x="711" y="205" />
              <mxPoint x="711" y="8" />
              <mxPoint x="821" y="8" />
              <mxPoint x="821" y="9" />
            </Array>
          </mxGeometry>
        </mxCell>
        <mxCell id="cnDZAFC2OdoH5LGAuBls-30" value="Backup&lt;div&gt;info&lt;/div&gt;" style="edgeLabel;html=1;align=center;verticalAlign=middle;resizable=0;points=[];" parent="JzLwqEurtTMZZMVcW33y-16" vertex="1" connectable="0">
          <mxGeometry x="-0.0429" y="-1" relative="1" as="geometry">
            <mxPoint as="offset" />
          </mxGeometry>
        </mxCell>
        <mxCell id="ypkdbGbY4oHme7Ffq_ra-2" value="&lt;span id=&quot;docs-internal-guid-0d3b4a39-7fff-ee58-b2d5-4b410e81db0f&quot;&gt;&lt;span style=&quot;font-family: Arial, sans-serif; background-color: transparent; font-variant-numeric: normal; font-variant-east-asian: normal; font-variant-alternates: normal; font-variant-position: normal; vertical-align: baseline; white-space-collapse: preserve;&quot;&gt;&lt;font style=&quot;font-size: 13px;&quot;&gt;Create backup&lt;/font&gt;&lt;/span&gt;&lt;/span&gt;" style="html=1;whiteSpace=wrap;rounded=1;" parent="1" vertex="1">
          <mxGeometry x="587" y="173" width="110" height="50" as="geometry" />
        </mxCell>
        <mxCell id="cnDZAFC2OdoH5LGAuBls-27" style="edgeStyle=orthogonalEdgeStyle;rounded=0;orthogonalLoop=1;jettySize=auto;html=1;entryX=0.5;entryY=1;entryDx=0;entryDy=0;" parent="1" source="ypkdbGbY4oHme7Ffq_ra-3" target="ypkdbGbY4oHme7Ffq_ra-2" edge="1">
          <mxGeometry relative="1" as="geometry" />
        </mxCell>
        <mxCell id="cnDZAFC2OdoH5LGAuBls-28" value="Time interval" style="edgeLabel;html=1;align=center;verticalAlign=middle;resizable=0;points=[];" parent="cnDZAFC2OdoH5LGAuBls-27" vertex="1" connectable="0">
          <mxGeometry x="-0.1143" relative="1" as="geometry">
            <mxPoint as="offset" />
          </mxGeometry>
        </mxCell>
        <mxCell id="ypkdbGbY4oHme7Ffq_ra-3" value="&lt;span id=&quot;docs-internal-guid-49d55ede-7fff-4c19-935e-1d39b4586dbc&quot;&gt;&lt;span style=&quot;font-family: Arial, sans-serif; background-color: transparent; font-variant-numeric: normal; font-variant-east-asian: normal; font-variant-alternates: normal; font-variant-position: normal; vertical-align: baseline; white-space-collapse: preserve;&quot;&gt;&lt;font style=&quot;font-size: 13px;&quot;&gt;Set automatic backup&lt;/font&gt;&lt;/span&gt;&lt;/span&gt;" style="html=1;whiteSpace=wrap;rounded=1;" parent="1" vertex="1">
          <mxGeometry x="590" y="270" width="110" height="50" as="geometry" />
        </mxCell>
        <mxCell id="JzLwqEurtTMZZMVcW33y-13" style="edgeStyle=orthogonalEdgeStyle;rounded=1;orthogonalLoop=1;jettySize=auto;html=1;curved=0;entryX=0.015;entryY=0.777;entryDx=0;entryDy=0;entryPerimeter=0;" parent="1" source="ypkdbGbY4oHme7Ffq_ra-4" target="JzLwqEurtTMZZMVcW33y-3" edge="1">
          <mxGeometry relative="1" as="geometry">
            <Array as="points">
              <mxPoint x="330" y="-14" />
            </Array>
            <mxPoint x="364" y="-6" as="targetPoint" />
          </mxGeometry>
        </mxCell>
        <mxCell id="cnDZAFC2OdoH5LGAuBls-14" value="AppID" style="edgeLabel;html=1;align=center;verticalAlign=middle;resizable=0;points=[];" parent="JzLwqEurtTMZZMVcW33y-13" vertex="1" connectable="0">
          <mxGeometry x="-0.1133" y="1" relative="1" as="geometry">
            <mxPoint x="1" y="45" as="offset" />
          </mxGeometry>
        </mxCell>
        <mxCell id="ypkdbGbY4oHme7Ffq_ra-4" value="&lt;span id=&quot;docs-internal-guid-fcb0ee32-7fff-8d8d-cb8f-51fce73417a1&quot;&gt;&lt;span style=&quot;font-family: Arial, sans-serif; background-color: transparent; font-variant-numeric: normal; font-variant-east-asian: normal; font-variant-alternates: normal; font-variant-position: normal; vertical-align: baseline; white-space-collapse: preserve;&quot;&gt;&lt;font style=&quot;font-size: 13px;&quot;&gt;Check app status&lt;/font&gt;&lt;/span&gt;&lt;/span&gt;" style="html=1;whiteSpace=wrap;rounded=1;" parent="1" vertex="1">
          <mxGeometry x="296" y="260" width="110" height="50" as="geometry" />
        </mxCell>
        <mxCell id="JzLwqEurtTMZZMVcW33y-17" style="edgeStyle=orthogonalEdgeStyle;rounded=1;orthogonalLoop=1;jettySize=auto;html=1;entryX=0.595;entryY=0.919;entryDx=0;entryDy=0;curved=0;entryPerimeter=0;" parent="1" source="ypkdbGbY4oHme7Ffq_ra-5" target="JzLwqEurtTMZZMVcW33y-1" edge="1">
          <mxGeometry relative="1" as="geometry">
            <Array as="points">
              <mxPoint x="881" y="60" />
            </Array>
          </mxGeometry>
        </mxCell>
        <mxCell id="cnDZAFC2OdoH5LGAuBls-35" value="VersionID" style="edgeLabel;html=1;align=center;verticalAlign=middle;resizable=0;points=[];" parent="JzLwqEurtTMZZMVcW33y-17" vertex="1" connectable="0">
          <mxGeometry x="-0.438" y="2" relative="1" as="geometry">
            <mxPoint y="5" as="offset" />
          </mxGeometry>
        </mxCell>
        <mxCell id="ypkdbGbY4oHme7Ffq_ra-5" value="&lt;span id=&quot;docs-internal-guid-7c4b74f6-7fff-c5e7-435d-efece4d70653&quot;&gt;&lt;span style=&quot;font-family: Arial, sans-serif; background-color: transparent; font-variant-numeric: normal; font-variant-east-asian: normal; font-variant-alternates: normal; font-variant-position: normal; vertical-align: baseline; white-space-collapse: preserve;&quot;&gt;&lt;font style=&quot;font-size: 13px;&quot;&gt;Restore version&lt;/font&gt;&lt;/span&gt;&lt;/span&gt;" style="html=1;whiteSpace=wrap;rounded=1;" parent="1" vertex="1">
          <mxGeometry x="841" y="90" width="110" height="50" as="geometry" />
        </mxCell>
        <mxCell id="JzLwqEurtTMZZMVcW33y-20" style="edgeStyle=orthogonalEdgeStyle;rounded=0;orthogonalLoop=1;jettySize=auto;html=1;entryX=0.992;entryY=0.805;entryDx=0;entryDy=0;entryPerimeter=0;" parent="1" source="ypkdbGbY4oHme7Ffq_ra-6" target="ypkdbGbY4oHme7Ffq_ra-16" edge="1">
          <mxGeometry relative="1" as="geometry">
            <Array as="points">
              <mxPoint x="986" y="220" />
            </Array>
          </mxGeometry>
        </mxCell>
        <mxCell id="cnDZAFC2OdoH5LGAuBls-39" value="Version info" style="edgeLabel;html=1;align=center;verticalAlign=middle;resizable=0;points=[];" parent="JzLwqEurtTMZZMVcW33y-20" vertex="1" connectable="0">
          <mxGeometry x="0.2944" y="1" relative="1" as="geometry">
            <mxPoint x="16" as="offset" />
          </mxGeometry>
        </mxCell>
        <mxCell id="wmUVwTjqIVBNQBJuKjWc-1" style="edgeStyle=orthogonalEdgeStyle;rounded=1;orthogonalLoop=1;jettySize=auto;html=1;entryX=1;entryY=0.5;entryDx=0;entryDy=0;curved=0;" parent="1" source="ypkdbGbY4oHme7Ffq_ra-6" target="JzLwqEurtTMZZMVcW33y-1" edge="1">
          <mxGeometry relative="1" as="geometry">
            <Array as="points">
              <mxPoint x="1113" y="15" />
            </Array>
          </mxGeometry>
        </mxCell>
        <mxCell id="cnDZAFC2OdoH5LGAuBls-34" value="VersionID" style="edgeLabel;html=1;align=center;verticalAlign=middle;resizable=0;points=[];" parent="wmUVwTjqIVBNQBJuKjWc-1" vertex="1" connectable="0">
          <mxGeometry x="-0.3296" y="1" relative="1" as="geometry">
            <mxPoint as="offset" />
          </mxGeometry>
        </mxCell>
        <mxCell id="ypkdbGbY4oHme7Ffq_ra-6" value="&lt;span id=&quot;docs-internal-guid-8aad3767-7fff-0c8e-b2ee-74b997b1324d&quot;&gt;&lt;span style=&quot;font-family: Arial, sans-serif; background-color: transparent; font-variant-numeric: normal; font-variant-east-asian: normal; font-variant-alternates: normal; font-variant-position: normal; vertical-align: baseline; white-space-collapse: preserve;&quot;&gt;&lt;font style=&quot;font-size: 13px;&quot;&gt;Select version&lt;/font&gt;&lt;/span&gt;&lt;/span&gt;" style="html=1;whiteSpace=wrap;rounded=1;" parent="1" vertex="1">
          <mxGeometry x="1053" y="180" width="110" height="50" as="geometry" />
        </mxCell>
        <mxCell id="wmUVwTjqIVBNQBJuKjWc-9" style="edgeStyle=orthogonalEdgeStyle;rounded=1;orthogonalLoop=1;jettySize=auto;html=1;entryX=0;entryY=0.5;entryDx=0;entryDy=0;curved=0;" parent="1" source="ypkdbGbY4oHme7Ffq_ra-8" target="JzLwqEurtTMZZMVcW33y-4" edge="1">
          <mxGeometry relative="1" as="geometry">
            <Array as="points">
              <mxPoint x="1225" y="165" />
            </Array>
          </mxGeometry>
        </mxCell>
        <mxCell id="5Dh02wj3wiwuV-WQwrCF-9" value="New&lt;div&gt;polices&lt;/div&gt;" style="edgeLabel;html=1;align=center;verticalAlign=middle;resizable=0;points=[];" parent="wmUVwTjqIVBNQBJuKjWc-9" vertex="1" connectable="0">
          <mxGeometry x="-0.0894" y="2" relative="1" as="geometry">
            <mxPoint y="22" as="offset" />
          </mxGeometry>
        </mxCell>
        <mxCell id="ypkdbGbY4oHme7Ffq_ra-8" value="&lt;span id=&quot;docs-internal-guid-67a832df-7fff-8fcd-8c16-c0354efd016f&quot;&gt;&lt;span style=&quot;font-family: Arial, sans-serif; background-color: transparent; font-variant-numeric: normal; font-variant-east-asian: normal; font-variant-alternates: normal; font-variant-position: normal; vertical-align: baseline; white-space-collapse: preserve;&quot;&gt;&lt;font style=&quot;font-size: 13px;&quot;&gt;Change k8s backup polices&lt;/font&gt;&lt;/span&gt;&lt;/span&gt;" style="html=1;whiteSpace=wrap;rounded=1;" parent="1" vertex="1">
          <mxGeometry x="1170" y="240" width="110" height="50" as="geometry" />
        </mxCell>
        <mxCell id="ypkdbGbY4oHme7Ffq_ra-9" value="&lt;span id=&quot;docs-internal-guid-7c4b74f6-7fff-c5e7-435d-efece4d70653&quot;&gt;&lt;span style=&quot;font-family: Arial, sans-serif; background-color: transparent; font-variant-numeric: normal; font-variant-east-asian: normal; font-variant-alternates: normal; font-variant-position: normal; vertical-align: baseline; white-space-collapse: preserve;&quot;&gt;&lt;font style=&quot;font-size: 13px;&quot;&gt;Set k8s settings&lt;/font&gt;&lt;/span&gt;&lt;/span&gt;" style="html=1;whiteSpace=wrap;rounded=1;" parent="1" vertex="1">
          <mxGeometry x="1440" y="310" width="110" height="50" as="geometry" />
        </mxCell>
        <mxCell id="ypkdbGbY4oHme7Ffq_ra-10" value="&lt;span id=&quot;docs-internal-guid-7c4b74f6-7fff-c5e7-435d-efece4d70653&quot;&gt;&lt;span style=&quot;font-family: Arial, sans-serif; background-color: transparent; font-variant-numeric: normal; font-variant-east-asian: normal; font-variant-alternates: normal; font-variant-position: normal; vertical-align: baseline; white-space-collapse: preserve;&quot;&gt;&lt;font style=&quot;font-size: 13px;&quot;&gt;Update configurations with k8s&lt;/font&gt;&lt;/span&gt;&lt;/span&gt;" style="html=1;whiteSpace=wrap;rounded=1;" parent="1" vertex="1">
          <mxGeometry x="1320" y="240" width="120" height="50" as="geometry" />
        </mxCell>
        <mxCell id="wmUVwTjqIVBNQBJuKjWc-13" style="edgeStyle=orthogonalEdgeStyle;rounded=1;orthogonalLoop=1;jettySize=auto;html=1;entryX=0;entryY=0.5;entryDx=0;entryDy=0;curved=0;" parent="1" source="ypkdbGbY4oHme7Ffq_ra-11" target="JzLwqEurtTMZZMVcW33y-2" edge="1">
          <mxGeometry relative="1" as="geometry" />
        </mxCell>
        <mxCell id="cnDZAFC2OdoH5LGAuBls-9" value="Username&lt;div&gt;Password, Role&lt;/div&gt;" style="edgeLabel;html=1;align=center;verticalAlign=middle;resizable=0;points=[];" parent="wmUVwTjqIVBNQBJuKjWc-13" vertex="1" connectable="0">
          <mxGeometry x="-0.7694" relative="1" as="geometry">
            <mxPoint as="offset" />
          </mxGeometry>
        </mxCell>
        <mxCell id="ypkdbGbY4oHme7Ffq_ra-11" value="&lt;span id=&quot;docs-internal-guid-67a832df-7fff-8fcd-8c16-c0354efd016f&quot;&gt;&lt;span style=&quot;font-family: Arial, sans-serif; background-color: transparent; font-variant-numeric: normal; font-variant-east-asian: normal; font-variant-alternates: normal; font-variant-position: normal; vertical-align: baseline; white-space-collapse: preserve;&quot;&gt;&lt;font style=&quot;font-size: 13px;&quot;&gt;Create account&lt;/font&gt;&lt;/span&gt;&lt;/span&gt;" style="html=1;whiteSpace=wrap;rounded=1;" parent="1" vertex="1">
          <mxGeometry x="800" y="400" width="110" height="50" as="geometry" />
        </mxCell>
        <mxCell id="wmUVwTjqIVBNQBJuKjWc-14" style="edgeStyle=orthogonalEdgeStyle;rounded=1;orthogonalLoop=1;jettySize=auto;html=1;entryX=0;entryY=0.75;entryDx=0;entryDy=0;curved=0;" parent="1" source="ypkdbGbY4oHme7Ffq_ra-12" target="ypkdbGbY4oHme7Ffq_ra-18" edge="1">
          <mxGeometry relative="1" as="geometry">
            <Array as="points">
              <mxPoint x="960" y="378" />
            </Array>
          </mxGeometry>
        </mxCell>
        <mxCell id="cnDZAFC2OdoH5LGAuBls-3" value="Login result" style="edgeLabel;html=1;align=center;verticalAlign=middle;resizable=0;points=[];" parent="wmUVwTjqIVBNQBJuKjWc-14" vertex="1" connectable="0">
          <mxGeometry x="-0.2035" y="3" relative="1" as="geometry">
            <mxPoint as="offset" />
          </mxGeometry>
        </mxCell>
        <mxCell id="wmUVwTjqIVBNQBJuKjWc-16" style="edgeStyle=orthogonalEdgeStyle;rounded=1;orthogonalLoop=1;jettySize=auto;html=1;curved=0;exitX=0.185;exitY=1.008;exitDx=0;exitDy=0;exitPerimeter=0;" parent="1" source="ypkdbGbY4oHme7Ffq_ra-12" target="JzLwqEurtTMZZMVcW33y-2" edge="1">
          <mxGeometry relative="1" as="geometry">
            <Array as="points">
              <mxPoint x="937" y="520" />
              <mxPoint x="937" y="561" />
              <mxPoint x="923" y="561" />
            </Array>
          </mxGeometry>
        </mxCell>
        <mxCell id="cnDZAFC2OdoH5LGAuBls-2" value="Username&lt;div&gt;Password&lt;/div&gt;" style="edgeLabel;html=1;align=center;verticalAlign=middle;resizable=0;points=[];labelBackgroundColor=default;" parent="wmUVwTjqIVBNQBJuKjWc-16" vertex="1" connectable="0">
          <mxGeometry x="-0.0635" y="4" relative="1" as="geometry">
            <mxPoint x="8" y="-13" as="offset" />
          </mxGeometry>
        </mxCell>
        <mxCell id="ypkdbGbY4oHme7Ffq_ra-12" value="&lt;span id=&quot;docs-internal-guid-67a832df-7fff-8fcd-8c16-c0354efd016f&quot;&gt;&lt;span style=&quot;font-family: Arial, sans-serif; background-color: transparent; font-variant-numeric: normal; font-variant-east-asian: normal; font-variant-alternates: normal; font-variant-position: normal; vertical-align: baseline; white-space-collapse: preserve;&quot;&gt;&lt;font style=&quot;font-size: 13px;&quot;&gt;Login&lt;/font&gt;&lt;/span&gt;&lt;/span&gt;" style="html=1;whiteSpace=wrap;rounded=1;" parent="1" vertex="1">
          <mxGeometry x="920" y="470" width="110" height="50" as="geometry" />
        </mxCell>
        <mxCell id="wmUVwTjqIVBNQBJuKjWc-19" style="edgeStyle=orthogonalEdgeStyle;rounded=0;orthogonalLoop=1;jettySize=auto;html=1;entryX=0.75;entryY=1;entryDx=0;entryDy=0;" parent="1" source="ypkdbGbY4oHme7Ffq_ra-13" target="ypkdbGbY4oHme7Ffq_ra-18" edge="1">
          <mxGeometry relative="1" as="geometry">
            <Array as="points">
              <mxPoint x="1133" y="430" />
            </Array>
          </mxGeometry>
        </mxCell>
        <mxCell id="cnDZAFC2OdoH5LGAuBls-45" value="Result of&lt;div&gt;operation&lt;/div&gt;" style="edgeLabel;html=1;align=center;verticalAlign=middle;resizable=0;points=[];" parent="wmUVwTjqIVBNQBJuKjWc-19" vertex="1" connectable="0">
          <mxGeometry x="-0.0141" y="1" relative="1" as="geometry">
            <mxPoint y="-12" as="offset" />
          </mxGeometry>
        </mxCell>
        <mxCell id="wmUVwTjqIVBNQBJuKjWc-20" style="edgeStyle=orthogonalEdgeStyle;rounded=1;orthogonalLoop=1;jettySize=auto;html=1;curved=0;entryX=0.834;entryY=-0.011;entryDx=0;entryDy=0;entryPerimeter=0;" parent="1" source="ypkdbGbY4oHme7Ffq_ra-13" target="JzLwqEurtTMZZMVcW33y-2" edge="1">
          <mxGeometry relative="1" as="geometry">
            <Array as="points">
              <mxPoint x="1070" y="563" />
              <mxPoint x="964" y="563" />
            </Array>
          </mxGeometry>
        </mxCell>
        <mxCell id="cnDZAFC2OdoH5LGAuBls-44" value="New password" style="edgeLabel;html=1;align=center;verticalAlign=middle;resizable=0;points=[];" parent="wmUVwTjqIVBNQBJuKjWc-20" vertex="1" connectable="0">
          <mxGeometry x="-0.538" y="-1" relative="1" as="geometry">
            <mxPoint x="-2" y="-20" as="offset" />
          </mxGeometry>
        </mxCell>
        <mxCell id="ypkdbGbY4oHme7Ffq_ra-13" value="&lt;span id=&quot;docs-internal-guid-67a832df-7fff-8fcd-8c16-c0354efd016f&quot;&gt;&lt;span style=&quot;font-family: Arial, sans-serif; background-color: transparent; font-variant-numeric: normal; font-variant-east-asian: normal; font-variant-alternates: normal; font-variant-position: normal; vertical-align: baseline; white-space-collapse: preserve;&quot;&gt;&lt;font style=&quot;font-size: 13px;&quot;&gt;Recover&lt;/font&gt;&lt;/span&gt;&lt;/span&gt;&lt;div&gt;&lt;span&gt;&lt;span style=&quot;font-family: Arial, sans-serif; background-color: transparent; font-variant-numeric: normal; font-variant-east-asian: normal; font-variant-alternates: normal; font-variant-position: normal; vertical-align: baseline; white-space-collapse: preserve;&quot;&gt;&lt;font style=&quot;font-size: 13px;&quot;&gt;password&lt;/font&gt;&lt;/span&gt;&lt;/span&gt;&lt;/div&gt;" style="html=1;whiteSpace=wrap;rounded=1;" parent="1" vertex="1">
          <mxGeometry x="1050" y="470" width="110" height="50" as="geometry" />
        </mxCell>
        <mxCell id="ypkdbGbY4oHme7Ffq_ra-14" value="&lt;span id=&quot;docs-internal-guid-67a832df-7fff-8fcd-8c16-c0354efd016f&quot;&gt;&lt;span style=&quot;font-family: Arial, sans-serif; background-color: transparent; font-variant-numeric: normal; font-variant-east-asian: normal; font-variant-alternates: normal; font-variant-position: normal; vertical-align: baseline; white-space-collapse: preserve;&quot;&gt;&lt;font style=&quot;font-size: 13px;&quot;&gt;Change&lt;/font&gt;&lt;/span&gt;&lt;/span&gt;&lt;div&gt;&lt;span&gt;&lt;span style=&quot;font-family: Arial, sans-serif; background-color: transparent; font-variant-numeric: normal; font-variant-east-asian: normal; font-variant-alternates: normal; font-variant-position: normal; vertical-align: baseline; white-space-collapse: preserve;&quot;&gt;&lt;font style=&quot;font-size: 13px;&quot;&gt;password&lt;/font&gt;&lt;/span&gt;&lt;/span&gt;&lt;/div&gt;" style="html=1;whiteSpace=wrap;rounded=1;" parent="1" vertex="1">
          <mxGeometry x="1220" y="460" width="110" height="50" as="geometry" />
        </mxCell>
        <mxCell id="JzLwqEurtTMZZMVcW33y-6" style="edgeStyle=orthogonalEdgeStyle;rounded=1;orthogonalLoop=1;jettySize=auto;html=1;curved=0;" parent="1" source="ypkdbGbY4oHme7Ffq_ra-15" target="ypkdbGbY4oHme7Ffq_ra-1" edge="1">
          <mxGeometry relative="1" as="geometry">
            <Array as="points">
              <mxPoint x="525" y="137" />
              <mxPoint x="525" y="105" />
            </Array>
          </mxGeometry>
        </mxCell>
        <mxCell id="cnDZAFC2OdoH5LGAuBls-25" value="App info" style="edgeLabel;html=1;align=center;verticalAlign=middle;resizable=0;points=[];" parent="JzLwqEurtTMZZMVcW33y-6" vertex="1" connectable="0">
          <mxGeometry x="0.1074" y="-1" relative="1" as="geometry">
            <mxPoint x="-2" y="6" as="offset" />
          </mxGeometry>
        </mxCell>
        <mxCell id="JzLwqEurtTMZZMVcW33y-7" style="edgeStyle=orthogonalEdgeStyle;rounded=1;orthogonalLoop=1;jettySize=auto;html=1;entryX=0;entryY=0.5;entryDx=0;entryDy=0;curved=0;" parent="1" source="ypkdbGbY4oHme7Ffq_ra-15" target="ypkdbGbY4oHme7Ffq_ra-2" edge="1">
          <mxGeometry relative="1" as="geometry" />
        </mxCell>
        <mxCell id="cnDZAFC2OdoH5LGAuBls-29" value="App info" style="edgeLabel;html=1;align=center;verticalAlign=middle;resizable=0;points=[];" parent="JzLwqEurtTMZZMVcW33y-7" vertex="1" connectable="0">
          <mxGeometry x="-0.2385" y="-1" relative="1" as="geometry">
            <mxPoint as="offset" />
          </mxGeometry>
        </mxCell>
        <mxCell id="JzLwqEurtTMZZMVcW33y-8" style="edgeStyle=orthogonalEdgeStyle;rounded=1;orthogonalLoop=1;jettySize=auto;html=1;entryX=0;entryY=0.5;entryDx=0;entryDy=0;curved=0;" parent="1" source="ypkdbGbY4oHme7Ffq_ra-15" target="ypkdbGbY4oHme7Ffq_ra-3" edge="1">
          <mxGeometry relative="1" as="geometry">
            <Array as="points">
              <mxPoint x="520" y="160" />
              <mxPoint x="520" y="295" />
            </Array>
          </mxGeometry>
        </mxCell>
        <mxCell id="cnDZAFC2OdoH5LGAuBls-26" value="AppID" style="edgeLabel;html=1;align=center;verticalAlign=middle;resizable=0;points=[];" parent="JzLwqEurtTMZZMVcW33y-8" vertex="1" connectable="0">
          <mxGeometry x="0.0119" relative="1" as="geometry">
            <mxPoint as="offset" />
          </mxGeometry>
        </mxCell>
        <mxCell id="JzLwqEurtTMZZMVcW33y-9" style="edgeStyle=orthogonalEdgeStyle;rounded=1;orthogonalLoop=1;jettySize=auto;html=1;entryX=0.813;entryY=0.023;entryDx=0;entryDy=0;entryPerimeter=0;curved=0;" parent="1" source="ypkdbGbY4oHme7Ffq_ra-15" target="ypkdbGbY4oHme7Ffq_ra-4" edge="1">
          <mxGeometry relative="1" as="geometry" />
        </mxCell>
        <mxCell id="cnDZAFC2OdoH5LGAuBls-13" value="AppID" style="edgeLabel;html=1;align=center;verticalAlign=middle;resizable=0;points=[];" parent="JzLwqEurtTMZZMVcW33y-9" vertex="1" connectable="0">
          <mxGeometry x="-0.1475" relative="1" as="geometry">
            <mxPoint x="-23" y="23" as="offset" />
          </mxGeometry>
        </mxCell>
        <mxCell id="cnDZAFC2OdoH5LGAuBls-16" style="edgeStyle=orthogonalEdgeStyle;rounded=1;orthogonalLoop=1;jettySize=auto;html=1;entryX=0.25;entryY=1;entryDx=0;entryDy=0;curved=0;exitX=0.25;exitY=0;exitDx=0;exitDy=0;" parent="1" source="ypkdbGbY4oHme7Ffq_ra-15" target="cnDZAFC2OdoH5LGAuBls-15" edge="1">
          <mxGeometry relative="1" as="geometry">
            <Array as="points">
              <mxPoint x="387" y="108" />
              <mxPoint x="387" y="92" />
            </Array>
          </mxGeometry>
        </mxCell>
        <mxCell id="cnDZAFC2OdoH5LGAuBls-21" value="AppID" style="edgeLabel;html=1;align=center;verticalAlign=middle;resizable=0;points=[];" parent="cnDZAFC2OdoH5LGAuBls-16" vertex="1" connectable="0">
          <mxGeometry x="0.0974" relative="1" as="geometry">
            <mxPoint y="5" as="offset" />
          </mxGeometry>
        </mxCell>
        <mxCell id="ypkdbGbY4oHme7Ffq_ra-15" value="Aggregate Application Manager" style="html=1;whiteSpace=wrap;" parent="1" vertex="1">
          <mxGeometry x="359" y="120" width="110" height="50" as="geometry" />
        </mxCell>
        <mxCell id="JzLwqEurtTMZZMVcW33y-18" style="edgeStyle=orthogonalEdgeStyle;rounded=0;orthogonalLoop=1;jettySize=auto;html=1;entryX=0.27;entryY=1.002;entryDx=0;entryDy=0;entryPerimeter=0;" parent="1" source="ypkdbGbY4oHme7Ffq_ra-16" target="ypkdbGbY4oHme7Ffq_ra-5" edge="1">
          <mxGeometry relative="1" as="geometry">
            <Array as="points">
              <mxPoint x="870" y="160" />
              <mxPoint x="871" y="160" />
            </Array>
          </mxGeometry>
        </mxCell>
        <mxCell id="cnDZAFC2OdoH5LGAuBls-42" value="VersionID" style="edgeLabel;html=1;align=center;verticalAlign=middle;resizable=0;points=[];" parent="JzLwqEurtTMZZMVcW33y-18" vertex="1" connectable="0">
          <mxGeometry x="-0.1458" relative="1" as="geometry">
            <mxPoint as="offset" />
          </mxGeometry>
        </mxCell>
        <mxCell id="JzLwqEurtTMZZMVcW33y-19" style="edgeStyle=orthogonalEdgeStyle;rounded=0;orthogonalLoop=1;jettySize=auto;html=1;" parent="1" source="ypkdbGbY4oHme7Ffq_ra-16" target="ypkdbGbY4oHme7Ffq_ra-6" edge="1">
          <mxGeometry relative="1" as="geometry" />
        </mxCell>
        <mxCell id="cnDZAFC2OdoH5LGAuBls-36" value="VersionID" style="edgeLabel;html=1;align=center;verticalAlign=middle;resizable=0;points=[];" parent="JzLwqEurtTMZZMVcW33y-19" vertex="1" connectable="0">
          <mxGeometry x="-0.3039" y="2" relative="1" as="geometry">
            <mxPoint x="5" as="offset" />
          </mxGeometry>
        </mxCell>
        <mxCell id="ypkdbGbY4oHme7Ffq_ra-16" value="Aggregate Version Manager" style="html=1;whiteSpace=wrap;" parent="1" vertex="1">
          <mxGeometry x="841" y="180" width="110" height="50" as="geometry" />
        </mxCell>
        <mxCell id="wmUVwTjqIVBNQBJuKjWc-3" style="edgeStyle=orthogonalEdgeStyle;rounded=0;orthogonalLoop=1;jettySize=auto;html=1;entryX=1.012;entryY=0.804;entryDx=0;entryDy=0;entryPerimeter=0;" parent="1" source="ypkdbGbY4oHme7Ffq_ra-17" target="ypkdbGbY4oHme7Ffq_ra-18" edge="1">
          <mxGeometry relative="1" as="geometry">
            <mxPoint x="1170" y="380" as="targetPoint" />
            <Array as="points">
              <mxPoint x="1195" y="380" />
            </Array>
          </mxGeometry>
        </mxCell>
        <mxCell id="wmUVwTjqIVBNQBJuKjWc-6" style="edgeStyle=orthogonalEdgeStyle;rounded=1;orthogonalLoop=1;jettySize=auto;html=1;entryX=0.5;entryY=1;entryDx=0;entryDy=0;curved=0;" parent="1" source="ypkdbGbY4oHme7Ffq_ra-17" target="ypkdbGbY4oHme7Ffq_ra-8" edge="1">
          <mxGeometry relative="1" as="geometry" />
        </mxCell>
        <mxCell id="5Dh02wj3wiwuV-WQwrCF-8" value="New&lt;div&gt;polices&lt;/div&gt;" style="edgeLabel;html=1;align=center;verticalAlign=middle;resizable=0;points=[];" parent="wmUVwTjqIVBNQBJuKjWc-6" vertex="1" connectable="0">
          <mxGeometry x="0.0182" y="-1" relative="1" as="geometry">
            <mxPoint as="offset" />
          </mxGeometry>
        </mxCell>
        <mxCell id="wmUVwTjqIVBNQBJuKjWc-7" style="edgeStyle=orthogonalEdgeStyle;rounded=1;orthogonalLoop=1;jettySize=auto;html=1;entryX=0.75;entryY=1;entryDx=0;entryDy=0;curved=0;" parent="1" source="ypkdbGbY4oHme7Ffq_ra-17" target="ypkdbGbY4oHme7Ffq_ra-10" edge="1">
          <mxGeometry relative="1" as="geometry">
            <Array as="points">
              <mxPoint x="1330" y="315" />
              <mxPoint x="1410" y="315" />
            </Array>
          </mxGeometry>
        </mxCell>
        <mxCell id="5Dh02wj3wiwuV-WQwrCF-18" value="Update&lt;div&gt;Request&lt;/div&gt;" style="edgeLabel;html=1;align=center;verticalAlign=middle;resizable=0;points=[];" parent="wmUVwTjqIVBNQBJuKjWc-7" vertex="1" connectable="0">
          <mxGeometry x="-0.0733" y="1" relative="1" as="geometry">
            <mxPoint as="offset" />
          </mxGeometry>
        </mxCell>
        <mxCell id="wmUVwTjqIVBNQBJuKjWc-8" style="edgeStyle=orthogonalEdgeStyle;rounded=1;orthogonalLoop=1;jettySize=auto;html=1;curved=0;" parent="1" source="ypkdbGbY4oHme7Ffq_ra-17" target="ypkdbGbY4oHme7Ffq_ra-9" edge="1">
          <mxGeometry relative="1" as="geometry">
            <Array as="points">
              <mxPoint x="1390" y="378" />
              <mxPoint x="1390" y="335" />
            </Array>
          </mxGeometry>
        </mxCell>
        <mxCell id="5Dh02wj3wiwuV-WQwrCF-11" value="New&lt;div&gt;settings&lt;/div&gt;" style="edgeLabel;html=1;align=center;verticalAlign=middle;resizable=0;points=[];" parent="wmUVwTjqIVBNQBJuKjWc-8" vertex="1" connectable="0">
          <mxGeometry x="-0.0205" y="-1" relative="1" as="geometry">
            <mxPoint as="offset" />
          </mxGeometry>
        </mxCell>
        <mxCell id="ypkdbGbY4oHme7Ffq_ra-17" value="Aggregate Kubernetes Manager" style="html=1;whiteSpace=wrap;" parent="1" vertex="1">
          <mxGeometry x="1230" y="340" width="110" height="50" as="geometry" />
        </mxCell>
        <mxCell id="wmUVwTjqIVBNQBJuKjWc-2" style="edgeStyle=orthogonalEdgeStyle;rounded=0;orthogonalLoop=1;jettySize=auto;html=1;" parent="1" source="ypkdbGbY4oHme7Ffq_ra-18" target="ypkdbGbY4oHme7Ffq_ra-17" edge="1">
          <mxGeometry relative="1" as="geometry" />
        </mxCell>
        <mxCell id="wmUVwTjqIVBNQBJuKjWc-12" style="edgeStyle=orthogonalEdgeStyle;rounded=1;orthogonalLoop=1;jettySize=auto;html=1;entryX=0.5;entryY=0;entryDx=0;entryDy=0;curved=0;" parent="1" source="ypkdbGbY4oHme7Ffq_ra-18" target="ypkdbGbY4oHme7Ffq_ra-11" edge="1">
          <mxGeometry relative="1" as="geometry" />
        </mxCell>
        <mxCell id="cnDZAFC2OdoH5LGAuBls-8" value="Username&lt;div&gt;Password, Role&lt;/div&gt;" style="edgeLabel;html=1;align=center;verticalAlign=middle;resizable=0;points=[];" parent="wmUVwTjqIVBNQBJuKjWc-12" vertex="1" connectable="0">
          <mxGeometry x="0.4203" relative="1" as="geometry">
            <mxPoint x="20" y="3" as="offset" />
          </mxGeometry>
        </mxCell>
        <mxCell id="wmUVwTjqIVBNQBJuKjWc-18" style="edgeStyle=orthogonalEdgeStyle;rounded=1;orthogonalLoop=1;jettySize=auto;html=1;entryX=0.25;entryY=0;entryDx=0;entryDy=0;curved=0;" parent="1" source="ypkdbGbY4oHme7Ffq_ra-18" target="ypkdbGbY4oHme7Ffq_ra-13" edge="1">
          <mxGeometry relative="1" as="geometry">
            <Array as="points">
              <mxPoint x="1105" y="414" />
              <mxPoint x="1078" y="414" />
            </Array>
          </mxGeometry>
        </mxCell>
        <mxCell id="cnDZAFC2OdoH5LGAuBls-43" value="Code&lt;div&gt;New password&lt;br&gt;&lt;/div&gt;" style="edgeLabel;html=1;align=center;verticalAlign=middle;resizable=0;points=[];" parent="wmUVwTjqIVBNQBJuKjWc-18" vertex="1" connectable="0">
          <mxGeometry x="-0.5272" relative="1" as="geometry">
            <mxPoint x="-25" y="29" as="offset" />
          </mxGeometry>
        </mxCell>
        <mxCell id="wmUVwTjqIVBNQBJuKjWc-22" style="edgeStyle=orthogonalEdgeStyle;rounded=1;orthogonalLoop=1;jettySize=auto;html=1;curved=0;" parent="1" source="ypkdbGbY4oHme7Ffq_ra-18" target="ypkdbGbY4oHme7Ffq_ra-14" edge="1">
          <mxGeometry relative="1" as="geometry">
            <Array as="points">
              <mxPoint x="1150" y="410" />
              <mxPoint x="1275" y="410" />
            </Array>
          </mxGeometry>
        </mxCell>
        <mxCell id="cnDZAFC2OdoH5LGAuBls-5" value="New password" style="edgeLabel;html=1;align=center;verticalAlign=middle;resizable=0;points=[];" parent="wmUVwTjqIVBNQBJuKjWc-22" vertex="1" connectable="0">
          <mxGeometry x="-0.1658" y="-2" relative="1" as="geometry">
            <mxPoint as="offset" />
          </mxGeometry>
        </mxCell>
        <mxCell id="cnDZAFC2OdoH5LGAuBls-47" style="edgeStyle=orthogonalEdgeStyle;rounded=1;orthogonalLoop=1;jettySize=auto;html=1;entryX=0.5;entryY=1;entryDx=0;entryDy=0;curved=0;" parent="1" source="ypkdbGbY4oHme7Ffq_ra-18" target="ypkdbGbY4oHme7Ffq_ra-16" edge="1">
          <mxGeometry relative="1" as="geometry">
            <Array as="points">
              <mxPoint x="1105" y="298" />
              <mxPoint x="896" y="298" />
            </Array>
          </mxGeometry>
        </mxCell>
        <mxCell id="cnDZAFC2OdoH5LGAuBls-48" value="AppID" style="edgeLabel;html=1;align=center;verticalAlign=middle;resizable=0;points=[];" parent="cnDZAFC2OdoH5LGAuBls-47" vertex="1" connectable="0">
          <mxGeometry x="0.232" y="2" relative="1" as="geometry">
            <mxPoint x="1" as="offset" />
          </mxGeometry>
        </mxCell>
        <mxCell id="ypkdbGbY4oHme7Ffq_ra-18" value="Aggregate Account Manager" style="html=1;whiteSpace=wrap;" parent="1" vertex="1">
          <mxGeometry x="1050" y="340" width="110" height="50" as="geometry" />
        </mxCell>
        <mxCell id="cnDZAFC2OdoH5LGAuBls-31" style="edgeStyle=orthogonalEdgeStyle;rounded=0;orthogonalLoop=1;jettySize=auto;html=1;entryX=0.75;entryY=0;entryDx=0;entryDy=0;" parent="1" source="JzLwqEurtTMZZMVcW33y-1" target="ypkdbGbY4oHme7Ffq_ra-5" edge="1">
          <mxGeometry relative="1" as="geometry">
            <Array as="points">
              <mxPoint x="923" y="60" />
            </Array>
          </mxGeometry>
        </mxCell>
        <mxCell id="cnDZAFC2OdoH5LGAuBls-40" value="Version" style="edgeLabel;html=1;align=center;verticalAlign=middle;resizable=0;points=[];" parent="cnDZAFC2OdoH5LGAuBls-31" vertex="1" connectable="0">
          <mxGeometry x="0.0417" y="1" relative="1" as="geometry">
            <mxPoint as="offset" />
          </mxGeometry>
        </mxCell>
        <mxCell id="cnDZAFC2OdoH5LGAuBls-33" style="edgeStyle=orthogonalEdgeStyle;rounded=1;orthogonalLoop=1;jettySize=auto;html=1;curved=0;" parent="1" source="JzLwqEurtTMZZMVcW33y-1" edge="1">
          <mxGeometry relative="1" as="geometry">
            <mxPoint x="1066" y="180" as="targetPoint" />
            <Array as="points">
              <mxPoint x="1066" y="26" />
              <mxPoint x="1066" y="180" />
            </Array>
          </mxGeometry>
        </mxCell>
        <mxCell id="cnDZAFC2OdoH5LGAuBls-38" value="Version&lt;div&gt;info&lt;/div&gt;" style="edgeLabel;html=1;align=center;verticalAlign=middle;resizable=0;points=[];" parent="cnDZAFC2OdoH5LGAuBls-33" vertex="1" connectable="0">
          <mxGeometry x="0.3524" y="-2" relative="1" as="geometry">
            <mxPoint as="offset" />
          </mxGeometry>
        </mxCell>
        <mxCell id="5Dh02wj3wiwuV-WQwrCF-2" style="edgeStyle=orthogonalEdgeStyle;rounded=1;orthogonalLoop=1;jettySize=auto;html=1;entryX=0.401;entryY=0.008;entryDx=0;entryDy=0;curved=0;entryPerimeter=0;" parent="1" source="JzLwqEurtTMZZMVcW33y-1" target="cnDZAFC2OdoH5LGAuBls-46" edge="1">
          <mxGeometry relative="1" as="geometry">
            <Array as="points">
              <mxPoint x="767" y="23" />
            </Array>
          </mxGeometry>
        </mxCell>
        <mxCell id="5Dh02wj3wiwuV-WQwrCF-3" value="Versions&lt;div&gt;info&lt;/div&gt;" style="edgeLabel;html=1;align=center;verticalAlign=middle;resizable=0;points=[];" parent="5Dh02wj3wiwuV-WQwrCF-2" vertex="1" connectable="0">
          <mxGeometry x="0.4964" relative="1" as="geometry">
            <mxPoint as="offset" />
          </mxGeometry>
        </mxCell>
        <mxCell id="JzLwqEurtTMZZMVcW33y-1" value="&amp;nbsp; &amp;nbsp; &amp;nbsp; &amp;nbsp; &amp;nbsp;S3 Version&amp;nbsp;&lt;span style=&quot;background-color: initial;&quot;&gt;Table&lt;/span&gt;" style="html=1;dashed=0;whiteSpace=wrap;shape=mxgraph.dfd.dataStoreID;align=left;spacingLeft=3;points=[[0,0],[0.5,0],[1,0],[0,0.5],[1,0.5],[0,1],[0.5,1],[1,1]];" parent="1" vertex="1">
          <mxGeometry x="821" width="128" height="30" as="geometry" />
        </mxCell>
        <mxCell id="JzLwqEurtTMZZMVcW33y-2" value="&amp;nbsp; &amp;nbsp; &amp;nbsp; &amp;nbsp; &amp;nbsp; &amp;nbsp; &amp;nbsp;User Table" style="html=1;dashed=0;whiteSpace=wrap;shape=mxgraph.dfd.dataStoreID;align=left;spacingLeft=3;points=[[0,0],[0.5,0],[1,0],[0,0.5],[1,0.5],[0,1],[0.5,1],[1,1]];" parent="1" vertex="1">
          <mxGeometry x="860" y="585" width="125" height="30" as="geometry" />
        </mxCell>
        <mxCell id="cnDZAFC2OdoH5LGAuBls-20" style="edgeStyle=orthogonalEdgeStyle;rounded=0;orthogonalLoop=1;jettySize=auto;html=1;entryX=0.6;entryY=-0.015;entryDx=0;entryDy=0;entryPerimeter=0;" parent="1" source="JzLwqEurtTMZZMVcW33y-3" target="cnDZAFC2OdoH5LGAuBls-15" edge="1">
          <mxGeometry relative="1" as="geometry">
            <mxPoint x="415" y="49.34042553191489" as="targetPoint" />
            <Array as="points">
              <mxPoint x="425" y="9" />
              <mxPoint x="425" y="9" />
            </Array>
          </mxGeometry>
        </mxCell>
        <mxCell id="cnDZAFC2OdoH5LGAuBls-23" value="App info" style="edgeLabel;html=1;align=center;verticalAlign=middle;resizable=0;points=[];" parent="cnDZAFC2OdoH5LGAuBls-20" vertex="1" connectable="0">
          <mxGeometry x="-0.0372" relative="1" as="geometry">
            <mxPoint x="2" y="-3" as="offset" />
          </mxGeometry>
        </mxCell>
        <mxCell id="JzLwqEurtTMZZMVcW33y-3" value="&amp;nbsp; &amp;nbsp; &amp;nbsp; &amp;nbsp; &amp;nbsp; &amp;nbsp;Application&lt;div&gt;&amp;nbsp; &amp;nbsp; &amp;nbsp; &amp;nbsp; &amp;nbsp; &amp;nbsp; &amp;nbsp; &amp;nbsp;Table&lt;/div&gt;" style="html=1;dashed=0;whiteSpace=wrap;shape=mxgraph.dfd.dataStoreID;align=left;spacingLeft=3;points=[[0,0],[0.5,0],[1,0],[0,0.5],[1,0.5],[0,1],[0.5,1],[1,1]];" parent="1" vertex="1">
          <mxGeometry x="349" y="-37" width="130" height="30" as="geometry" />
        </mxCell>
        <mxCell id="5Dh02wj3wiwuV-WQwrCF-15" style="edgeStyle=orthogonalEdgeStyle;rounded=1;orthogonalLoop=1;jettySize=auto;html=1;curved=0;" parent="1" source="JzLwqEurtTMZZMVcW33y-4" target="ypkdbGbY4oHme7Ffq_ra-10" edge="1">
          <mxGeometry relative="1" as="geometry">
            <Array as="points">
              <mxPoint x="1357" y="215" />
              <mxPoint x="1380" y="215" />
            </Array>
          </mxGeometry>
        </mxCell>
        <mxCell id="5Dh02wj3wiwuV-WQwrCF-17" value="&lt;span style=&quot;white-space: pre-wrap;&quot; data-src-align=&quot;0:10&quot; class=&quot;EzKURWReUAB5oZgtQNkl&quot;&gt;Update&lt;/span&gt;" style="edgeLabel;html=1;align=center;verticalAlign=middle;resizable=0;points=[];" parent="5Dh02wj3wiwuV-WQwrCF-15" vertex="1" connectable="0">
          <mxGeometry x="-0.1233" y="1" relative="1" as="geometry">
            <mxPoint y="-14" as="offset" />
          </mxGeometry>
        </mxCell>
        <mxCell id="JzLwqEurtTMZZMVcW33y-4" value="Kubernetes" style="html=1;whiteSpace=wrap;" parent="1" vertex="1">
          <mxGeometry x="1290" y="140" width="110" height="50" as="geometry" />
        </mxCell>
        <mxCell id="JzLwqEurtTMZZMVcW33y-10" style="edgeStyle=orthogonalEdgeStyle;rounded=1;orthogonalLoop=1;jettySize=auto;html=1;entryX=0.282;entryY=0.938;entryDx=0;entryDy=0;entryPerimeter=0;curved=0;" parent="1" source="ypkdbGbY4oHme7Ffq_ra-4" target="ypkdbGbY4oHme7Ffq_ra-15" edge="1">
          <mxGeometry relative="1" as="geometry">
            <Array as="points">
              <mxPoint x="351" y="187" />
              <mxPoint x="390" y="187" />
            </Array>
          </mxGeometry>
        </mxCell>
        <mxCell id="cnDZAFC2OdoH5LGAuBls-12" value="App&lt;div&gt;status&lt;/div&gt;" style="edgeLabel;html=1;align=center;verticalAlign=middle;resizable=0;points=[];" parent="JzLwqEurtTMZZMVcW33y-10" vertex="1" connectable="0">
          <mxGeometry x="0.0692" relative="1" as="geometry">
            <mxPoint y="22" as="offset" />
          </mxGeometry>
        </mxCell>
        <mxCell id="wmUVwTjqIVBNQBJuKjWc-10" style="edgeStyle=orthogonalEdgeStyle;rounded=1;orthogonalLoop=1;jettySize=auto;html=1;entryX=0.17;entryY=0.987;entryDx=0;entryDy=0;entryPerimeter=0;curved=0;" parent="1" source="ypkdbGbY4oHme7Ffq_ra-10" target="JzLwqEurtTMZZMVcW33y-4" edge="1">
          <mxGeometry relative="1" as="geometry">
            <Array as="points">
              <mxPoint x="1342" y="215" />
              <mxPoint x="1309" y="215" />
            </Array>
          </mxGeometry>
        </mxCell>
        <mxCell id="5Dh02wj3wiwuV-WQwrCF-19" value="Update&lt;div&gt;Request&lt;/div&gt;" style="edgeLabel;html=1;align=center;verticalAlign=middle;resizable=0;points=[];" parent="wmUVwTjqIVBNQBJuKjWc-10" vertex="1" connectable="0">
          <mxGeometry x="0.1837" relative="1" as="geometry">
            <mxPoint x="-8" y="2" as="offset" />
          </mxGeometry>
        </mxCell>
        <mxCell id="wmUVwTjqIVBNQBJuKjWc-11" style="edgeStyle=orthogonalEdgeStyle;rounded=1;orthogonalLoop=1;jettySize=auto;html=1;entryX=1;entryY=0.5;entryDx=0;entryDy=0;curved=0;" parent="1" source="ypkdbGbY4oHme7Ffq_ra-9" target="JzLwqEurtTMZZMVcW33y-4" edge="1">
          <mxGeometry relative="1" as="geometry">
            <Array as="points">
              <mxPoint x="1490" y="165" />
            </Array>
          </mxGeometry>
        </mxCell>
        <mxCell id="5Dh02wj3wiwuV-WQwrCF-10" value="New&lt;div&gt;settings&lt;/div&gt;" style="edgeLabel;html=1;align=center;verticalAlign=middle;resizable=0;points=[];" parent="wmUVwTjqIVBNQBJuKjWc-11" vertex="1" connectable="0">
          <mxGeometry x="-0.5459" y="2" relative="1" as="geometry">
            <mxPoint y="-25" as="offset" />
          </mxGeometry>
        </mxCell>
        <mxCell id="wmUVwTjqIVBNQBJuKjWc-15" style="edgeStyle=orthogonalEdgeStyle;rounded=1;orthogonalLoop=1;jettySize=auto;html=1;entryX=0.621;entryY=0.033;entryDx=0;entryDy=0;entryPerimeter=0;curved=0;" parent="1" source="ypkdbGbY4oHme7Ffq_ra-18" target="ypkdbGbY4oHme7Ffq_ra-12" edge="1">
          <mxGeometry relative="1" as="geometry">
            <Array as="points">
              <mxPoint x="1060" y="410" />
              <mxPoint x="988" y="410" />
            </Array>
          </mxGeometry>
        </mxCell>
        <mxCell id="cnDZAFC2OdoH5LGAuBls-1" value="Username&lt;div&gt;Password&lt;/div&gt;" style="edgeLabel;html=1;align=center;verticalAlign=middle;resizable=0;points=[];" parent="wmUVwTjqIVBNQBJuKjWc-15" vertex="1" connectable="0">
          <mxGeometry x="-0.0137" y="2" relative="1" as="geometry">
            <mxPoint x="-2" y="18" as="offset" />
          </mxGeometry>
        </mxCell>
        <mxCell id="wmUVwTjqIVBNQBJuKjWc-17" style="edgeStyle=orthogonalEdgeStyle;rounded=1;orthogonalLoop=1;jettySize=auto;html=1;entryX=0;entryY=0.383;entryDx=0;entryDy=0;entryPerimeter=0;curved=0;" parent="1" source="JzLwqEurtTMZZMVcW33y-2" target="ypkdbGbY4oHme7Ffq_ra-12" edge="1">
          <mxGeometry relative="1" as="geometry">
            <Array as="points">
              <mxPoint x="880" y="489" />
            </Array>
          </mxGeometry>
        </mxCell>
        <mxCell id="cnDZAFC2OdoH5LGAuBls-4" value="Data&lt;div&gt;correctness&lt;/div&gt;" style="edgeLabel;html=1;align=center;verticalAlign=middle;resizable=0;points=[];" parent="wmUVwTjqIVBNQBJuKjWc-17" vertex="1" connectable="0">
          <mxGeometry x="-0.3667" y="1" relative="1" as="geometry">
            <mxPoint as="offset" />
          </mxGeometry>
        </mxCell>
        <mxCell id="wmUVwTjqIVBNQBJuKjWc-23" style="edgeStyle=orthogonalEdgeStyle;rounded=1;orthogonalLoop=1;jettySize=auto;html=1;entryX=1;entryY=0.5;entryDx=0;entryDy=0;curved=0;" parent="1" source="ypkdbGbY4oHme7Ffq_ra-14" target="JzLwqEurtTMZZMVcW33y-2" edge="1">
          <mxGeometry relative="1" as="geometry">
            <Array as="points">
              <mxPoint x="1275" y="600" />
            </Array>
          </mxGeometry>
        </mxCell>
        <mxCell id="cnDZAFC2OdoH5LGAuBls-6" value="Hash of new password" style="edgeLabel;html=1;align=center;verticalAlign=middle;resizable=0;points=[];" parent="wmUVwTjqIVBNQBJuKjWc-23" vertex="1" connectable="0">
          <mxGeometry x="0.1694" y="-1" relative="1" as="geometry">
            <mxPoint as="offset" />
          </mxGeometry>
        </mxCell>
        <mxCell id="wmUVwTjqIVBNQBJuKjWc-25" style="edgeStyle=orthogonalEdgeStyle;rounded=1;orthogonalLoop=1;jettySize=auto;html=1;entryX=0.667;entryY=0.991;entryDx=0;entryDy=0;entryPerimeter=0;curved=0;" parent="1" source="ypkdbGbY4oHme7Ffq_ra-18" target="ypkdbGbY4oHme7Ffq_ra-15" edge="1">
          <mxGeometry relative="1" as="geometry">
            <Array as="points">
              <mxPoint x="432" y="350" />
              <mxPoint x="432" y="170" />
            </Array>
          </mxGeometry>
        </mxCell>
        <mxCell id="5Dh02wj3wiwuV-WQwrCF-20" value="UserID" style="edgeLabel;html=1;align=center;verticalAlign=middle;resizable=0;points=[];" parent="wmUVwTjqIVBNQBJuKjWc-25" vertex="1" connectable="0">
          <mxGeometry x="0.0468" y="1" relative="1" as="geometry">
            <mxPoint as="offset" />
          </mxGeometry>
        </mxCell>
        <mxCell id="cnDZAFC2OdoH5LGAuBls-17" style="edgeStyle=orthogonalEdgeStyle;rounded=1;orthogonalLoop=1;jettySize=auto;html=1;entryX=0;entryY=0.5;entryDx=0;entryDy=0;curved=0;exitX=0;exitY=0.5;exitDx=0;exitDy=0;" parent="1" source="cnDZAFC2OdoH5LGAuBls-15" target="ypkdbGbY4oHme7Ffq_ra-15" edge="1">
          <mxGeometry relative="1" as="geometry">
            <Array as="points">
              <mxPoint x="346" y="50" />
              <mxPoint x="346" y="75" />
              <mxPoint x="344" y="75" />
              <mxPoint x="344" y="145" />
            </Array>
          </mxGeometry>
        </mxCell>
        <mxCell id="cnDZAFC2OdoH5LGAuBls-22" value="App&lt;div&gt;info&lt;/div&gt;" style="edgeLabel;html=1;align=center;verticalAlign=middle;resizable=0;points=[];" parent="cnDZAFC2OdoH5LGAuBls-17" vertex="1" connectable="0">
          <mxGeometry x="-0.0294" y="-1" relative="1" as="geometry">
            <mxPoint x="2" y="-13" as="offset" />
          </mxGeometry>
        </mxCell>
        <mxCell id="cnDZAFC2OdoH5LGAuBls-15" value="&lt;span id=&quot;docs-internal-guid-fcb0ee32-7fff-8d8d-cb8f-51fce73417a1&quot;&gt;&lt;span style=&quot;font-family: Arial, sans-serif; background-color: transparent; font-variant-numeric: normal; font-variant-east-asian: normal; font-variant-alternates: normal; font-variant-position: normal; vertical-align: baseline; white-space-collapse: preserve;&quot;&gt;&lt;font style=&quot;font-size: 13px;&quot;&gt;Get app info&lt;/font&gt;&lt;/span&gt;&lt;/span&gt;" style="html=1;whiteSpace=wrap;rounded=1;" parent="1" vertex="1">
          <mxGeometry x="359" y="25" width="110" height="50" as="geometry" />
        </mxCell>
        <mxCell id="cnDZAFC2OdoH5LGAuBls-19" value="AppID" style="edgeStyle=orthogonalEdgeStyle;rounded=0;orthogonalLoop=1;jettySize=auto;html=1;entryX=0.267;entryY=0.992;entryDx=0;entryDy=0;entryPerimeter=0;" parent="1" source="cnDZAFC2OdoH5LGAuBls-15" target="JzLwqEurtTMZZMVcW33y-3" edge="1">
          <mxGeometry x="-0.0049" relative="1" as="geometry">
            <Array as="points">
              <mxPoint x="384" y="5" />
              <mxPoint x="384" y="5" />
            </Array>
            <mxPoint as="offset" />
          </mxGeometry>
        </mxCell>
        <mxCell id="cnDZAFC2OdoH5LGAuBls-32" style="edgeStyle=orthogonalEdgeStyle;rounded=0;orthogonalLoop=1;jettySize=auto;html=1;entryX=0.838;entryY=0.06;entryDx=0;entryDy=0;entryPerimeter=0;" parent="1" source="ypkdbGbY4oHme7Ffq_ra-5" target="ypkdbGbY4oHme7Ffq_ra-16" edge="1">
          <mxGeometry relative="1" as="geometry">
            <Array as="points">
              <mxPoint x="933" y="150" />
              <mxPoint x="933" y="150" />
            </Array>
          </mxGeometry>
        </mxCell>
        <mxCell id="cnDZAFC2OdoH5LGAuBls-41" value="Version" style="edgeLabel;html=1;align=center;verticalAlign=middle;resizable=0;points=[];" parent="cnDZAFC2OdoH5LGAuBls-32" vertex="1" connectable="0">
          <mxGeometry x="-0.1279" relative="1" as="geometry">
            <mxPoint as="offset" />
          </mxGeometry>
        </mxCell>
        <mxCell id="cnDZAFC2OdoH5LGAuBls-50" style="edgeStyle=orthogonalEdgeStyle;rounded=1;orthogonalLoop=1;jettySize=auto;html=1;entryX=0.25;entryY=1;entryDx=0;entryDy=0;curved=0;" parent="1" source="cnDZAFC2OdoH5LGAuBls-46" target="ypkdbGbY4oHme7Ffq_ra-16" edge="1">
          <mxGeometry relative="1" as="geometry">
            <Array as="points">
              <mxPoint x="762" y="250" />
              <mxPoint x="869" y="250" />
            </Array>
          </mxGeometry>
        </mxCell>
        <mxCell id="cnDZAFC2OdoH5LGAuBls-52" value="Versions&lt;div&gt;info&lt;/div&gt;" style="edgeLabel;html=1;align=center;verticalAlign=middle;resizable=0;points=[];" parent="cnDZAFC2OdoH5LGAuBls-50" vertex="1" connectable="0">
          <mxGeometry x="0.0519" y="2" relative="1" as="geometry">
            <mxPoint x="13" as="offset" />
          </mxGeometry>
        </mxCell>
        <mxCell id="cnDZAFC2OdoH5LGAuBls-46" value="&lt;span id=&quot;docs-internal-guid-8aad3767-7fff-0c8e-b2ee-74b997b1324d&quot;&gt;&lt;span style=&quot;font-family: Arial, sans-serif; background-color: transparent; font-variant-numeric: normal; font-variant-east-asian: normal; font-variant-alternates: normal; font-variant-position: normal; vertical-align: baseline; white-space-collapse: preserve;&quot;&gt;&lt;font style=&quot;font-size: 13px;&quot;&gt;Get all versions of application&lt;/font&gt;&lt;/span&gt;&lt;/span&gt;" style="html=1;whiteSpace=wrap;rounded=1;" parent="1" vertex="1">
          <mxGeometry x="723" y="125" width="110" height="50" as="geometry" />
        </mxCell>
        <mxCell id="cnDZAFC2OdoH5LGAuBls-49" style="edgeStyle=orthogonalEdgeStyle;rounded=1;orthogonalLoop=1;jettySize=auto;html=1;entryX=0.636;entryY=0.958;entryDx=0;entryDy=0;entryPerimeter=0;curved=0;" parent="1" source="ypkdbGbY4oHme7Ffq_ra-16" target="cnDZAFC2OdoH5LGAuBls-46" edge="1">
          <mxGeometry relative="1" as="geometry" />
        </mxCell>
        <mxCell id="cnDZAFC2OdoH5LGAuBls-51" value="AppID" style="edgeLabel;html=1;align=center;verticalAlign=middle;resizable=0;points=[];" parent="cnDZAFC2OdoH5LGAuBls-49" vertex="1" connectable="0">
          <mxGeometry x="-0.1193" y="-1" relative="1" as="geometry">
            <mxPoint as="offset" />
          </mxGeometry>
        </mxCell>
        <mxCell id="cnDZAFC2OdoH5LGAuBls-53" style="edgeStyle=orthogonalEdgeStyle;rounded=1;orthogonalLoop=1;jettySize=auto;html=1;entryX=0.143;entryY=1.067;entryDx=0;entryDy=0;entryPerimeter=0;curved=0;" parent="1" source="cnDZAFC2OdoH5LGAuBls-46" target="JzLwqEurtTMZZMVcW33y-1" edge="1">
          <mxGeometry relative="1" as="geometry">
            <Array as="points">
              <mxPoint x="807" y="78" />
              <mxPoint x="839" y="78" />
            </Array>
          </mxGeometry>
        </mxCell>
        <mxCell id="5Dh02wj3wiwuV-WQwrCF-1" value="AppID" style="edgeLabel;html=1;align=center;verticalAlign=middle;resizable=0;points=[];" parent="cnDZAFC2OdoH5LGAuBls-53" vertex="1" connectable="0">
          <mxGeometry x="-0.5457" y="-1" relative="1" as="geometry">
            <mxPoint as="offset" />
          </mxGeometry>
        </mxCell>
        <mxCell id="5Dh02wj3wiwuV-WQwrCF-4" style="edgeStyle=orthogonalEdgeStyle;rounded=1;orthogonalLoop=1;jettySize=auto;html=1;entryX=0.13;entryY=0.037;entryDx=0;entryDy=0;entryPerimeter=0;curved=0;" parent="1" source="JzLwqEurtTMZZMVcW33y-3" target="ypkdbGbY4oHme7Ffq_ra-4" edge="1">
          <mxGeometry relative="1" as="geometry">
            <Array as="points">
              <mxPoint x="310" y="-26" />
            </Array>
          </mxGeometry>
        </mxCell>
        <mxCell id="5Dh02wj3wiwuV-WQwrCF-5" value="App&lt;div&gt;status&lt;/div&gt;" style="edgeLabel;html=1;align=center;verticalAlign=middle;resizable=0;points=[];" parent="5Dh02wj3wiwuV-WQwrCF-4" vertex="1" connectable="0">
          <mxGeometry x="-0.3637" y="-1" relative="1" as="geometry">
            <mxPoint as="offset" />
          </mxGeometry>
        </mxCell>
        <mxCell id="5Dh02wj3wiwuV-WQwrCF-6" style="edgeStyle=orthogonalEdgeStyle;rounded=1;orthogonalLoop=1;jettySize=auto;html=1;entryX=0.149;entryY=0.025;entryDx=0;entryDy=0;entryPerimeter=0;curved=0;" parent="1" source="ypkdbGbY4oHme7Ffq_ra-15" target="ypkdbGbY4oHme7Ffq_ra-18" edge="1">
          <mxGeometry relative="1" as="geometry">
            <Array as="points">
              <mxPoint x="455" y="330" />
              <mxPoint x="1066" y="330" />
            </Array>
          </mxGeometry>
        </mxCell>
        <mxCell id="5Dh02wj3wiwuV-WQwrCF-7" value="Apps info" style="edgeLabel;html=1;align=center;verticalAlign=middle;resizable=0;points=[];" parent="5Dh02wj3wiwuV-WQwrCF-6" vertex="1" connectable="0">
          <mxGeometry x="0.1077" y="1" relative="1" as="geometry">
            <mxPoint as="offset" />
          </mxGeometry>
        </mxCell>
        <mxCell id="5Dh02wj3wiwuV-WQwrCF-13" style="edgeStyle=orthogonalEdgeStyle;rounded=1;orthogonalLoop=1;jettySize=auto;html=1;entryX=0.697;entryY=0.053;entryDx=0;entryDy=0;entryPerimeter=0;curved=0;" parent="1" source="ypkdbGbY4oHme7Ffq_ra-10" target="ypkdbGbY4oHme7Ffq_ra-17" edge="1">
          <mxGeometry relative="1" as="geometry">
            <Array as="points">
              <mxPoint x="1307" y="265" />
            </Array>
          </mxGeometry>
        </mxCell>
        <mxCell id="5Dh02wj3wiwuV-WQwrCF-16" value="&lt;span style=&quot;white-space: pre-wrap;&quot; data-src-align=&quot;0:10&quot; class=&quot;EzKURWReUAB5oZgtQNkl&quot;&gt;Update&lt;/span&gt;" style="edgeLabel;html=1;align=center;verticalAlign=middle;resizable=0;points=[];" parent="5Dh02wj3wiwuV-WQwrCF-13" vertex="1" connectable="0">
          <mxGeometry x="0.0764" relative="1" as="geometry">
            <mxPoint as="offset" />
          </mxGeometry>
        </mxCell>
        <mxCell id="5Dh02wj3wiwuV-WQwrCF-21" value="&lt;span id=&quot;docs-internal-guid-fcb0ee32-7fff-8d8d-cb8f-51fce73417a1&quot;&gt;&lt;span style=&quot;font-family: Arial, sans-serif; background-color: transparent; font-variant-numeric: normal; font-variant-east-asian: normal; font-variant-alternates: normal; font-variant-position: normal; vertical-align: baseline; white-space-collapse: preserve;&quot;&gt;&lt;font style=&quot;font-size: 13px;&quot;&gt;Get all users&lt;/font&gt;&lt;/span&gt;&lt;/span&gt;&lt;div&gt;&lt;span&gt;&lt;span style=&quot;font-family: Arial, sans-serif; background-color: transparent; font-variant-numeric: normal; font-variant-east-asian: normal; font-variant-alternates: normal; font-variant-position: normal; vertical-align: baseline; white-space-collapse: preserve;&quot;&gt;&lt;font style=&quot;font-size: 13px;&quot;&gt;apps&lt;/font&gt;&lt;/span&gt;&lt;/span&gt;&lt;/div&gt;" style="html=1;whiteSpace=wrap;rounded=1;" parent="1" vertex="1">
          <mxGeometry x="480" y="14" width="110" height="50" as="geometry" />
        </mxCell>
        <mxCell id="5Dh02wj3wiwuV-WQwrCF-22" style="edgeStyle=orthogonalEdgeStyle;rounded=1;orthogonalLoop=1;jettySize=auto;html=1;entryX=0.131;entryY=0.977;entryDx=0;entryDy=0;entryPerimeter=0;curved=0;" parent="1" source="ypkdbGbY4oHme7Ffq_ra-15" target="5Dh02wj3wiwuV-WQwrCF-21" edge="1">
          <mxGeometry relative="1" as="geometry">
            <Array as="points">
              <mxPoint x="414" y="88" />
              <mxPoint x="494" y="88" />
            </Array>
          </mxGeometry>
        </mxCell>
        <mxCell id="5Dh02wj3wiwuV-WQwrCF-24" value="UserID" style="edgeLabel;html=1;align=center;verticalAlign=middle;resizable=0;points=[];" parent="5Dh02wj3wiwuV-WQwrCF-22" vertex="1" connectable="0">
          <mxGeometry x="-0.1883" y="2" relative="1" as="geometry">
            <mxPoint x="7" y="1" as="offset" />
          </mxGeometry>
        </mxCell>
        <mxCell id="5Dh02wj3wiwuV-WQwrCF-23" style="edgeStyle=orthogonalEdgeStyle;rounded=1;orthogonalLoop=1;jettySize=auto;html=1;entryX=0.83;entryY=0.057;entryDx=0;entryDy=0;entryPerimeter=0;curved=0;" parent="1" source="5Dh02wj3wiwuV-WQwrCF-21" target="ypkdbGbY4oHme7Ffq_ra-15" edge="1">
          <mxGeometry relative="1" as="geometry">
            <Array as="points">
              <mxPoint x="535" y="99" />
              <mxPoint x="450" y="99" />
            </Array>
          </mxGeometry>
        </mxCell>
        <mxCell id="5Dh02wj3wiwuV-WQwrCF-25" value="Apps info" style="edgeLabel;html=1;align=center;verticalAlign=middle;resizable=0;points=[];" parent="5Dh02wj3wiwuV-WQwrCF-23" vertex="1" connectable="0">
          <mxGeometry x="0.1972" relative="1" as="geometry">
            <mxPoint x="7" y="1" as="offset" />
          </mxGeometry>
        </mxCell>
        <mxCell id="5Dh02wj3wiwuV-WQwrCF-26" style="edgeStyle=orthogonalEdgeStyle;rounded=1;orthogonalLoop=1;jettySize=auto;html=1;entryX=0.837;entryY=0.938;entryDx=0;entryDy=0;entryPerimeter=0;curved=0;" parent="1" target="JzLwqEurtTMZZMVcW33y-3" edge="1">
          <mxGeometry relative="1" as="geometry">
            <mxPoint x="504" y="13" as="sourcePoint" />
            <Array as="points">
              <mxPoint x="504" y="7" />
              <mxPoint x="458" y="7" />
            </Array>
          </mxGeometry>
        </mxCell>
        <mxCell id="5Dh02wj3wiwuV-WQwrCF-29" value="UserID" style="edgeLabel;html=1;align=center;verticalAlign=middle;resizable=0;points=[];" parent="5Dh02wj3wiwuV-WQwrCF-26" vertex="1" connectable="0">
          <mxGeometry x="0.0254" y="-2" relative="1" as="geometry">
            <mxPoint x="8" y="1" as="offset" />
          </mxGeometry>
        </mxCell>
        <mxCell id="5Dh02wj3wiwuV-WQwrCF-27" style="edgeStyle=orthogonalEdgeStyle;rounded=1;orthogonalLoop=1;jettySize=auto;html=1;entryX=0.614;entryY=0.053;entryDx=0;entryDy=0;entryPerimeter=0;curved=0;" parent="1" source="JzLwqEurtTMZZMVcW33y-3" target="5Dh02wj3wiwuV-WQwrCF-21" edge="1">
          <mxGeometry relative="1" as="geometry">
            <Array as="points">
              <mxPoint x="548" y="-12" />
            </Array>
          </mxGeometry>
        </mxCell>
        <mxCell id="5Dh02wj3wiwuV-WQwrCF-28" value="Apps info" style="edgeLabel;html=1;align=center;verticalAlign=middle;resizable=0;points=[];" parent="5Dh02wj3wiwuV-WQwrCF-27" vertex="1" connectable="0">
          <mxGeometry x="-0.3702" y="-2" relative="1" as="geometry">
            <mxPoint x="5" as="offset" />
          </mxGeometry>
        </mxCell>
      </root>
    </mxGraphModel>
  </diagram>
</mxfile>
